<svg xmlns="http://www.w3.org/2000/svg" xmlns:xlink="http://www.w3.org/1999/xlink" id="Layer_1" x="0" y="0" version="1.1" viewBox="0 0 16 16" style="enable-background:new 0 0 16 16" xml:space="preserve"><style type="text/css">.st0,.st1{fill:#fee07b;stroke:#dda91d;stroke-width:.75;stroke-linecap:round;stroke-linejoin:round}.st1{fill:none}.st2{fill:#d0021b}</style><g><g id="_8"><rect width="11.1" height="6" x="2.4" y="5" class="st0"/><line x1="10.9" x2="10.9" y1="5.4" y2="8.9" class="st1"/><line x1="6.9" x2="6.9" y1="5.4" y2="8.9" class="st1"/><line x1="8.9" x2="8.9" y1="5.4" y2="7.9" class="st1"/><line x1="4.9" x2="4.9" y1="5.4" y2="7.9" class="st1"/></g><path d="M14,5.1l1-1c0.3-0.3,0.3-0.8,0-1.1s-0.8-0.3-1.1,0l-1,1l-1-1c-0.3-0.3-0.8-0.3-1.1,0s-0.3,0.8,0,1.1l1,1l-1,1 c-0.3,0.3-0.3,0.8,0,1.1c0.1,0.1,0.3,0.2,0.5,0.2s0.6-0.1,0.7-0.3l1-1l1,1c0.1,0.1,0.3,0.2,0.5,0.2s0.4,0,0.5-0.2 c0.3-0.3,0.3-0.8,0-1.1L14,5.1z" class="st2"/></g></svg>