<svg xmlns="http://www.w3.org/2000/svg" viewBox="0 0 16 16"><defs><style>.cls-1{fill:#f2f2f2}.cls-2{fill:#2195e7}.cls-3,.cls-4,.cls-5{fill:none;stroke-width:.75px}.cls-3{stroke:#c1cbd5}.cls-3,.cls-5{stroke-linejoin:round}.cls-4,.cls-5{stroke:#2195e7}.cls-4{stroke-miterlimit:10}</style></defs><title>coll-catalog_object</title><g id="_2" data-name="2"><path d="M3,2.95h8.1a.53.53,0,0,1,.53.53v7.2a.52.52,0,0,1-.52.52H3a.52.52,0,0,1-.52-.52V3.48A.52.52,0,0,1,3,2.95Z" class="cls-1"/><path d="M11.1,3.3a.15.15,0,0,1,.15.15v7.2a.15.15,0,0,1-.15.15H3a.15.15,0,0,1-.15-.15V3.45A.15.15,0,0,1,3,3.3h8.1m0-.75H3a.9.9,0,0,0-.9.9v7.2a.9.9,0,0,0,.9.9h8.1a.9.9,0,0,0,.9-.9V3.45A.9.9,0,0,0,11.1,2.55Z" class="cls-2"/><rect width="9.9" height="9" x="4" y="4.45" class="cls-1" rx="1" ry="1"/><line x1="8.95" x2="8.95" y1="7.15" y2="13.45" class="cls-3"/><line x1="4.45" x2="13.45" y1="10.3" y2="10.3" class="cls-3"/><line x1="8.95" x2="8.95" y1="4.45" y2="7.6" class="cls-4"/><path d="M13,5.2a.15.15,0,0,1,.15.15v7.2a.15.15,0,0,1-.15.15H4.9a.15.15,0,0,1-.15-.15V5.35A.15.15,0,0,1,4.9,5.2H13m0-.75H4.9a.9.9,0,0,0-.9.9v7.2a.9.9,0,0,0,.9.9H13a.9.9,0,0,0,.9-.9V5.35A.9.9,0,0,0,13,4.45Z" class="cls-2"/><line x1="13.45" x2="4.45" y1="7.6" y2="7.6" class="cls-5"/></g></svg>