<svg xmlns="http://www.w3.org/2000/svg" xmlns:xlink="http://www.w3.org/1999/xlink" id="Layer_1" x="0" y="0" version="1.1" viewBox="0 0 16 16" style="enable-background:new 0 0 16 16" xml:space="preserve"><style type="text/css">.st0{fill:#dde1f0;stroke:#4b5fad;stroke-width:.65;stroke-linecap:round;stroke-linejoin:round;stroke-miterlimit:10}.st1{fill:#4b5fad}.st2{fill:none;stroke:#4b5fad;stroke-width:.65;stroke-linecap:round;stroke-linejoin:round;stroke-miterlimit:10}</style><g><path d="M10,13c-2,2-5.1,2-7.1,0s-2-5.1,0-7.1C4.5,7.5,8.5,11.5,10,13z" class="st0"/></g><g><path d="M11.8,11.3c-2,2-5.1,2-7.1,0s-2-5.1,0-7.1C6.2,5.7,10.2,9.8,11.8,11.3z" class="st0"/></g><path d="M8.7,7.8l0.8-0.7c0.1,0.1,0.3,0.1,0.4,0.1c0.6,0,1-0.4,1-1s-0.4-1-1-1s-1,0.4-1,1c0,0.1,0,0.3,0.1,0.4L8.2,7.3	L8.7,7.8z" class="st1"/><g><path d="M10.5,1.6c2.2,0,4,1.8,4,4" class="st2"/><path d="M10.6,3.6c1.1,0,2,0.9,2,2" class="st2"/></g></svg>