<svg xmlns="http://www.w3.org/2000/svg" xmlns:xlink="http://www.w3.org/1999/xlink" id="Layer_1" x="0" y="0" version="1.1" viewBox="0 0 16 16" style="enable-background:new 0 0 16 16" xml:space="preserve"><style type="text/css">.st0{fill:#dde1f0;stroke:#4b5fad;stroke-width:.65;stroke-linecap:round;stroke-linejoin:round;stroke-miterlimit:10}.st1{fill:#4b5fad}.st2{fill:none;stroke:#4b5fad;stroke-width:.65;stroke-linecap:round;stroke-linejoin:round;stroke-miterlimit:10}</style><g><g><path d="M11,12c-2,2-5.1,2-7.1,0s-2-5.1,0-7.1C5.4,6.4,9.5,10.5,11,12z" class="st0"/></g><g><path d="M7.9,8.6l0.7-0.7C8.7,8,8.9,8,9,8c0.6,0,1-0.4,1-1S9.6,6,9,6S8,6.4,8,7c0,0.1,0,0.3,0.1,0.4L7.4,8.1" class="st1"/><g><path d="M9.6,2.5c2.2,0,4,1.8,4,4" class="st2"/><path d="M9.7,4.4c1.1,0,2,0.9,2,2" class="st2"/></g></g></g></svg>